<?xml version="1.0" encoding="UTF-8"?>
<svg width="24px" height="24px" viewBox="0 0 24 24" version="1.1" xmlns="http://www.w3.org/2000/svg">
  <g stroke="none" stroke-width="1" fill="white" fill-rule="evenodd">
    <path d="M4,2 L14,2 C15.1045695,2 16,2.8954305 16,4 L16,16 C16,17.1045695 15.1045695,18 14,18 L4,18 C2.8954305,18 2,17.1045695 2,16 L2,4 C2,2.8954305 2.8954305,2 4,2 Z" transform="translate(9.000000, 10.000000) rotate(-10.000000) translate(-9.000000, -10.000000)"></path>
    <path d="M10,6 L20,6 C21.1045695,6 22,6.8954305 22,8 L22,20 C22,21.1045695 21.1045695,22 20,22 L10,22 C8.8954305,22 8,21.1045695 8,20 L8,8 C8,6.8954305 8.8954305,6 10,6 Z" transform="translate(15.000000, 14.000000) rotate(10.000000) translate(-15.000000, -14.000000)"></path>
  </g>
</svg> 